<mxfile>
    <diagram id="uP5gMltfrclFHzQTGU7G" name="Page-1">
        <mxGraphModel dx="650" dy="488" grid="1" gridSize="10" guides="1" tooltips="1" connect="1" arrows="1" fold="1" page="1" pageScale="1" pageWidth="850" pageHeight="1100" math="0" shadow="0">
            <root>
                <mxCell id="0"/>
                <mxCell id="1" parent="0"/>
                <mxCell id="5ssYhn-ANpwcj1AWOHFl-1" value="&lt;font face=&quot;Fira Code&quot;&gt;a = 3&lt;/font&gt;" style="rounded=0;whiteSpace=wrap;html=1;fontSize=22;" parent="1" vertex="1">
                    <mxGeometry x="190" y="120" width="120" height="60" as="geometry"/>
                </mxCell>
                <mxCell id="5ssYhn-ANpwcj1AWOHFl-2" value="&lt;font style=&quot;font-size: 22px&quot;&gt;b = 4&lt;/font&gt;" style="rounded=0;whiteSpace=wrap;html=1;" parent="1" vertex="1">
                    <mxGeometry x="370" y="120" width="120" height="60" as="geometry"/>
                </mxCell>
                <mxCell id="5ssYhn-ANpwcj1AWOHFl-3" value="&lt;font style=&quot;font-size: 22px&quot;&gt;temp&lt;br&gt;&lt;/font&gt;" style="rounded=0;whiteSpace=wrap;html=1;" parent="1" vertex="1">
                    <mxGeometry x="550" y="120" width="120" height="60" as="geometry"/>
                </mxCell>
                <mxCell id="5ssYhn-ANpwcj1AWOHFl-7" value="&lt;font style=&quot;font-size: 22px&quot;&gt;temp=3&lt;br&gt;&lt;/font&gt;" style="rounded=0;whiteSpace=wrap;html=1;" parent="1" vertex="1">
                    <mxGeometry x="550" y="300" width="120" height="60" as="geometry"/>
                </mxCell>
                <mxCell id="5ssYhn-ANpwcj1AWOHFl-8" value="&lt;font style=&quot;font-size: 22px&quot;&gt;b = 4&lt;/font&gt;" style="rounded=0;whiteSpace=wrap;html=1;" parent="1" vertex="1">
                    <mxGeometry x="370" y="300" width="120" height="60" as="geometry"/>
                </mxCell>
                <mxCell id="5ssYhn-ANpwcj1AWOHFl-9" value="a = 4" style="rounded=0;whiteSpace=wrap;html=1;fontSize=22;" parent="1" vertex="1">
                    <mxGeometry x="190" y="300" width="120" height="60" as="geometry"/>
                </mxCell>
                <mxCell id="5ssYhn-ANpwcj1AWOHFl-10" value="&lt;font style=&quot;font-size: 22px&quot;&gt;b = 4&lt;/font&gt;" style="rounded=0;whiteSpace=wrap;html=1;" parent="1" vertex="1">
                    <mxGeometry x="370" y="210" width="120" height="60" as="geometry"/>
                </mxCell>
                <mxCell id="5ssYhn-ANpwcj1AWOHFl-11" value="a = 3" style="rounded=0;whiteSpace=wrap;html=1;fontSize=22;" parent="1" vertex="1">
                    <mxGeometry x="190" y="210" width="120" height="60" as="geometry"/>
                </mxCell>
                <mxCell id="5ssYhn-ANpwcj1AWOHFl-12" value="&lt;font style=&quot;font-size: 22px&quot;&gt;temp=3&lt;br&gt;&lt;/font&gt;" style="rounded=0;whiteSpace=wrap;html=1;" parent="1" vertex="1">
                    <mxGeometry x="550" y="210" width="120" height="60" as="geometry"/>
                </mxCell>
                <mxCell id="5ssYhn-ANpwcj1AWOHFl-13" value="&lt;font style=&quot;font-size: 22px&quot;&gt;temp=3&lt;br&gt;&lt;/font&gt;" style="rounded=0;whiteSpace=wrap;html=1;" parent="1" vertex="1">
                    <mxGeometry x="550" y="380" width="120" height="60" as="geometry"/>
                </mxCell>
                <mxCell id="5ssYhn-ANpwcj1AWOHFl-14" value="&lt;font style=&quot;font-size: 22px&quot;&gt;b = 3&lt;/font&gt;" style="rounded=0;whiteSpace=wrap;html=1;" parent="1" vertex="1">
                    <mxGeometry x="370" y="380" width="120" height="60" as="geometry"/>
                </mxCell>
                <mxCell id="5ssYhn-ANpwcj1AWOHFl-15" value="a = 4" style="rounded=0;whiteSpace=wrap;html=1;fontSize=22;" parent="1" vertex="1">
                    <mxGeometry x="190" y="380" width="120" height="60" as="geometry"/>
                </mxCell>
            </root>
        </mxGraphModel>
    </diagram>
</mxfile>